<svg width="16" height="20" viewBox="0 0 16 20" fill="none" xmlns="http://www.w3.org/2000/svg">
<path d="M13.0536 18.2789C12.0736 19.2289 11.0036 19.0789 9.97355 18.6289C8.88355 18.1689 7.88355 18.1489 6.73355 18.6289C5.29355 19.2489 4.53355 19.0689 3.67355 18.2789C-1.20645 13.2489 -0.486448 5.58887 5.05355 5.30887C6.40355 5.37887 7.34355 6.04887 8.13355 6.10887C9.31355 5.86887 10.4436 5.17887 11.7036 5.26887C13.2136 5.38887 14.3536 5.98887 15.1036 7.06887C11.9836 8.93887 12.7236 13.0489 15.5836 14.1989C15.0136 15.6989 14.2736 17.1889 13.0436 18.2889L13.0536 18.2789ZM8.03355 5.24887C7.88355 3.01887 9.69355 1.17887 11.7736 0.998871C12.0636 3.57887 9.43355 5.49887 8.03355 5.24887Z" fill="black"/>
</svg>
